<svg xmlns="http://www.w3.org/2000/svg" width="59.139" height="16.847" viewBox="0 0 59.139 16.847">
  <g id="arrow-right" transform="translate(0 -0.053)">
    <g id="Groupe_4" data-name="Groupe 4">
      <path id="Tracé_3" data-name="Tracé 3" d="M49.7,8.6a1.285,1.285,0,0,1-1,1,99.143,99.143,0,0,1-12.1,1.2c-2,.1-4.1.1-6.1.2-2,0-4.1,0-6.1-.1C18.1,10.7,6.6,10,2,9.7A2.165,2.165,0,0,1,0,7.6H0A2.2,2.2,0,0,1,2.1,5.4c4.7,0,16.1-.1,22.4,0,4,0,8.1.2,12.1.5s8.1.7,12.1,1.4A1.044,1.044,0,0,1,49.7,8.6Z"/>
      <path id="Tracé_4" data-name="Tracé 4" d="M57.8,5.9A12.9,12.9,0,0,1,55,5.1a15.95,15.95,0,0,1-2.7-1.2A18.007,18.007,0,0,1,47.6.4L47.5.3a1.127,1.127,0,0,0-1.6.2,1.127,1.127,0,0,0,.2,1.6h0c1.7,1.3,3.3,2.6,5,3.9l2.5,1.8A30.127,30.127,0,0,0,50.8,10a14.463,14.463,0,0,0-2.2,2.1A13.052,13.052,0,0,0,46.9,15h0a.9.9,0,0,0-.1.5,1.43,1.43,0,0,0,1.4,1.4,7.458,7.458,0,0,0,3.4-.9,12.705,12.705,0,0,0,2.7-1.8,29.039,29.039,0,0,0,4.3-4.9l.4-.6c0-.3.1-.5.1-.7A1.752,1.752,0,0,0,57.8,5.9Z"/>
    </g>
    <path id="Tracé_5" data-name="Tracé 5" d="M0,9.6v0" fill="none"/>
  </g>
</svg>
