<svg xmlns="http://www.w3.org/2000/svg" xmlns:xlink="http://www.w3.org/1999/xlink" viewBox="0 0 417.67 408.49"><defs><style>.cls-1,.cls-9{fill:none;}.cls-2{fill:#fff;}.cls-3{fill:#fbc355;}.cls-4{fill:#fbd777;}.cls-5{clip-path:url(#clip-path);}.cls-6{clip-path:url(#clip-path-2);}.cls-10,.cls-7{fill:#f4f4f4;}.cls-8{clip-path:url(#clip-path-3);}.cls-10,.cls-9{stroke:#000;stroke-linecap:round;stroke-linejoin:round;stroke-width:6px;}</style><clipPath id="clip-path" transform="translate(0 3.4)"><path id="masque-front-folder" class="cls-1" d="M367,184.54c13.14-1.43,21.62,13.24,15.24,26.37L308.6,345.37l-8.81,16.09c-3.77,6.86-10.28,11.46-17.34,12.23L22.3,402a12.83,12.83,0,0,1-1.85.07l40.23-87.56,43.61-94.94A14.16,14.16,0,0,1,115,212l.7-.07h0l94.89-10.32,57.83-6.3,72.12-7.85Z"/></clipPath><clipPath id="clip-path-2" transform="translate(0 3.4)"><path id="masque-card-right" class="cls-1" d="M340.52,187.42l-72.12,7.85-57.83,6.3L189.67,184a7.49,7.49,0,0,1-2.45-4,9.38,9.38,0,0,1,1.55-7.73L236,107.19c2.73-3.77,7.56-4.63,10.78-1.93l91.08,76.4A7.91,7.91,0,0,1,340.52,187.42Z"/></clipPath><clipPath id="clip-path-3" transform="translate(0 3.4)"><path id="masque-card-top" class="cls-1" d="M161.51,9.25c4.19.22,7.15,4.15,6.62,8.78l-9.28,80.1c-.54,4.63-4.37,8.2-8.56,8L31.92,99.87c-4.18-.22-7.15-4.16-6.61-8.79L34.59,11c.54-4.63,4.37-8.21,8.56-8Z"/></clipPath></defs><g id="Calque_2" data-name="Calque 2"><g id="_4.autres" data-name="4.autres"><g id="couleurs-final"><path class="cls-2" d="M340.52,187.42l-72.12,7.85-57.83,6.3L189.67,184a7.49,7.49,0,0,1-2.45-4,9.38,9.38,0,0,1,1.55-7.73L236,107.19c2.73-3.77,7.56-4.63,10.78-1.93l91.08,76.4A7.91,7.91,0,0,1,340.52,187.42Z" transform="translate(0 3.4)"/><path id="card-right" class="cls-2" d="M340.52,187.42l-72.12,7.85-57.83,6.3L189.67,184a7.49,7.49,0,0,1-2.45-4,9.38,9.38,0,0,1,1.55-7.73L236,107.19c2.73-3.77,7.56-4.63,10.78-1.93l91.08,76.4A7.91,7.91,0,0,1,340.52,187.42Z" transform="translate(0 3.4)"/><path id="card-left" class="cls-2" d="M100.91,179.67l14.77,32.22-.7.08a14.16,14.16,0,0,0-10.69,7.61L60.68,314.52,21.32,228.57a9.3,9.3,0,0,1,3.57-11.48L90.7,176.65A6.93,6.93,0,0,1,100.91,179.67Z" transform="translate(0 3.4)"/><path id="card-top" class="cls-2" d="M161.51,9.25c4.19.22,7.15,4.15,6.62,8.78l-9.28,80.1c-.54,4.63-4.37,8.2-8.56,8L31.92,99.87c-4.18-.22-7.15-4.16-6.61-8.79L34.59,11c.54-4.63,4.37-8.21,8.56-8Z" transform="translate(0 3.4)"/><path id="inside-folder" class="cls-3" d="M139.16,178.27a13.56,13.56,0,0,0,12.57,5.64l35.49-3.86a7.49,7.49,0,0,0,2.45,4l20.9,17.54-94.89,10.32-14.77-32.22a6.93,6.93,0,0,0-10.21-3L24.89,217.09a9.3,9.3,0,0,0-3.57,11.48l39.36,85.95L20.45,402.08c-7.59-.16-13.59-6.57-13.74-15.11L3,180.22c-.17-9.23,6.54-17.45,15-18.37l93.45-10.17A13.57,13.57,0,0,1,124,157.32Z" transform="translate(0 3.4)"/><path id="front-folder" class="cls-4" d="M367,184.54c13.14-1.43,21.62,13.24,15.24,26.37L308.6,345.37l-8.81,16.09c-3.77,6.86-10.28,11.46-17.34,12.23L22.3,402a12.83,12.83,0,0,1-1.85.07l40.23-87.56,43.61-94.94A14.16,14.16,0,0,1,115,212l.7-.07h0l94.89-10.32,57.83-6.3,72.12-7.85Z" transform="translate(0 3.4)"/></g><g id="ombres"><g id="front-folder-2" data-name="front-folder"><g class="cls-5"><path id="trace-front-folder" class="cls-3" d="M249.67,388.6c14,0,88-141,102-177s-63-27-63-27l106-26,23,59-89,165Z" transform="translate(0 3.4)"/></g></g><g id="card-right-2" data-name="card-right"><g class="cls-6"><polygon id="trace-card-right" class="cls-7" points="191.67 199 349.67 142 368.67 205 211.67 221 191.67 199"/></g></g><g id="card-top-2" data-name="card-top"><g class="cls-8"><polygon id="trace-card-top" class="cls-7" points="161.67 0 89.67 121 174.67 121 181.67 0 161.67 0"/></g></g></g><g id="trace-final"><path class="cls-9" d="M20.45,402.08c-7.59-.16-13.59-6.57-13.74-15.11L3,180.22c-.17-9.23,6.54-17.45,15-18.37l93.45-10.17A13.57,13.57,0,0,1,124,157.32l15.14,21a13.56,13.56,0,0,0,12.57,5.64l35.49-3.86" transform="translate(0 3.4)"/><path class="cls-9" d="M268.4,195.27l72.12-7.85,26.5-2.88c13.14-1.43,21.62,13.24,15.24,26.37L308.6,345.37l-8.81,16.09c-3.77,6.86-10.28,11.46-17.34,12.23L22.3,402a12.83,12.83,0,0,1-1.85.07l40.23-87.56" transform="translate(0 3.4)"/><polyline class="cls-9" points="114.98 215.37 115.68 215.29 210.57 204.97"/><path class="cls-9" d="M150.29,106.11,31.92,99.87c-4.18-.22-7.15-4.16-6.61-8.79L34.59,11c.54-4.63,4.37-8.21,8.56-8L161.51,9.25c4.19.22,7.15,4.15,6.62,8.78l-9.28,80.1C158.31,102.76,154.48,106.33,150.29,106.11Z" transform="translate(0 3.4)"/><path class="cls-10" d="M340.52,187.42l-72.12,7.85-57.83,6.3L189.67,184a7.49,7.49,0,0,1-2.45-4,9.38,9.38,0,0,1,1.55-7.73L236,107.19c2.73-3.77,7.56-4.63,10.78-1.93l91.08,76.4A7.91,7.91,0,0,1,340.52,187.42Z" transform="translate(0 3.4)"/><path class="cls-10" d="M115.68,211.89h0l-.7.07a14.16,14.16,0,0,0-10.69,7.61L60.68,314.52,21.32,228.57a9.3,9.3,0,0,1,3.57-11.48L90.7,176.65a6.93,6.93,0,0,1,10.21,3Z" transform="translate(0 3.4)"/></g></g></g></svg>