<svg xmlns="http://www.w3.org/2000/svg" xmlns:xlink="http://www.w3.org/1999/xlink" viewBox="0 0 389.98 359.8"><defs><style>.cls-1,.cls-5{fill:none;}.cls-2{fill:#fff;}.cls-3{fill:#3d415e;}.cls-4{fill:#282c3d;}.cls-5,.cls-9{stroke:#000;stroke-linecap:round;stroke-linejoin:round;stroke-width:6px;}.cls-6{clip-path:url(#clip-path);}.cls-7{fill:#222633;}.cls-8{clip-path:url(#clip-path-2);}.cls-9{fill:#f4f4f4;}</style><clipPath id="clip-path"><polygon id="masque-bande-clap" class="cls-1" points="305.98 125.53 366.98 192.94 294.23 185.28 233.23 117.88 305.98 125.53"/></clipPath><clipPath id="clip-path-2"><path id="masque-bottom-clap" class="cls-1" d="M367,192.93v120a14.14,14.14,0,0,1-16,14.32L28,293.3a18.2,18.2,0,0,1-16-17.68v-120L148.73,170l72.75,7.65,72.75,7.64Z"/></clipPath></defs><g id="Calque_2" data-name="Calque 2"><g id="_6.cine-series" data-name="6.cine-series"><g id="deformation-peinture-dynamique"><path class="cls-2" d="M357.22,46.69a15,15,0,0,1-2.43,11.75L288.67,7.11l44.16-4.05c8.67-.79,17.09,5.73,18.79,14.58Z"/><polygon class="cls-2" points="288.91 69.25 217.54 75.8 217.53 75.8 145.91 20.18 217.3 13.65 288.91 69.25"/><path class="cls-2" d="M146.15,82.33,74.77,88.87,7,36.25a14.06,14.06,0,0,1,8.9-4.16l58.62-5.37Z"/><polygon class="cls-2" points="87.73 102.58 148.73 170 75.98 162.34 18.26 98.56 14.98 94.94 87.73 102.58"/><polygon class="cls-2" points="233.23 117.88 294.23 185.28 221.48 177.65 160.48 110.22 233.23 117.88"/><path class="cls-2" d="M367,147.93v45l-61-67.41,45,4.73A18.2,18.2,0,0,1,367,147.93Z"/><path class="cls-3" d="M367,192.93v120a14.14,14.14,0,0,1-16,14.32L28,293.3a18.2,18.2,0,0,1-16-17.68v-120L148.73,170l72.75,7.65,72.75,7.64Z"/><polygon class="cls-4" points="305.98 125.53 366.98 192.94 294.23 185.28 233.23 117.88 305.98 125.53"/><path class="cls-4" d="M288.67,7.11l66.12,51.33a13.93,13.93,0,0,1-10.18,5.71l-55.69,5.1h0L217.3,13.65Z"/><polygon class="cls-4" points="160.48 110.22 221.48 177.65 148.73 170 87.73 102.58 160.48 110.22"/><polygon class="cls-4" points="217.53 75.8 146.15 82.33 74.53 26.73 145.91 20.18 217.53 75.8"/><polygon class="cls-4" points="18.26 98.56 75.98 162.34 11.98 155.63 11.98 94.63 14.98 94.94 18.26 98.56"/><path class="cls-4" d="M74.77,88.87,12,94.62,3.3,49.55A14.82,14.82,0,0,1,7,36.25Z"/><path class="cls-5" d="M367,192.93v120a14.14,14.14,0,0,1-16,14.32L28,293.3a18.2,18.2,0,0,1-16-17.68v-120L148.73,170"/><path class="cls-5" d="M288.67,7.11l44.16-4.05c8.67-.79,17.09,5.73,18.79,14.58l5.6,29.05a15,15,0,0,1-2.43,11.75"/><path class="cls-5" d="M217.3,13.65l71.37-6.54,66.12,51.33a13.93,13.93,0,0,1-10.18,5.71l-55.69,5.1h0"/><polyline class="cls-5" points="145.91 20.18 217.3 13.65 288.91 69.25 217.54 75.8 217.53 75.8"/><polyline class="cls-5" points="74.53 26.73 145.91 20.18 217.53 75.8 146.15 82.33"/><path class="cls-5" d="M7,36.25a14.06,14.06,0,0,1,8.9-4.16l58.62-5.37,71.62,55.61L74.77,88.87"/><path class="cls-5" d="M74.77,88.87,12,94.62,3.3,49.55A14.82,14.82,0,0,1,7,36.25Z"/><line class="cls-5" x1="14.98" y1="94.93" x2="87.73" y2="102.58"/><line class="cls-5" x1="148.73" y1="169.99" x2="75.98" y2="162.34"/><polyline class="cls-5" points="221.48 177.65 148.73 170 87.73 102.58 160.48 110.22"/><polyline class="cls-5" points="294.23 185.28 221.48 177.65 160.48 110.22 233.23 117.88"/><polyline class="cls-5" points="366.98 192.94 294.23 185.28 233.23 117.88 305.98 125.53"/><path class="cls-5" d="M306,125.52l45,4.73a18.2,18.2,0,0,1,16,17.68v45Z"/><polygon class="cls-5" points="75.98 162.34 11.98 155.63 11.98 94.63 14.98 94.94 18.26 98.56 75.98 162.34"/></g><g id="couleurs-final"><g id="clap"><path class="cls-3" d="M367,192.93v120a14.14,14.14,0,0,1-16,14.32L28,293.3a18.2,18.2,0,0,1-16-17.68v-120L148.73,170l72.75,7.65,72.75,7.64Z"/><path class="cls-2" d="M367,147.93v45l-61-67.41,45,4.73A18.2,18.2,0,0,1,367,147.93Z"/><polygon class="cls-4" points="305.98 125.53 366.98 192.94 294.23 185.28 233.23 117.88 305.98 125.53"/><path class="cls-2" d="M357.22,46.69a15,15,0,0,1-2.43,11.75L288.67,7.11l44.16-4.05c8.67-.79,17.09,5.73,18.79,14.58Z"/><path class="cls-4" d="M288.67,7.11l66.12,51.33a13.93,13.93,0,0,1-10.18,5.71l-55.69,5.1h0L217.3,13.65Z"/><polygon class="cls-2" points="233.23 117.88 294.23 185.28 221.48 177.65 160.48 110.22 233.23 117.88"/><polygon class="cls-2" points="288.91 69.25 217.54 75.8 217.53 75.8 145.91 20.18 217.3 13.65 288.91 69.25"/><polygon class="cls-4" points="160.48 110.22 221.48 177.65 148.73 170 87.73 102.58 160.48 110.22"/><polygon class="cls-4" points="217.53 75.8 146.15 82.33 74.53 26.73 145.91 20.18 217.53 75.8"/><polygon class="cls-2" points="87.73 102.58 148.73 170 75.98 162.34 18.26 98.56 14.98 94.94 87.73 102.58"/><path class="cls-2" d="M146.15,82.33,74.77,88.87,7,36.25a14.06,14.06,0,0,1,8.9-4.16l58.62-5.37Z"/><polygon class="cls-4" points="18.26 98.56 75.98 162.34 11.98 155.63 11.98 94.63 14.98 94.94 18.26 98.56"/><path class="cls-4" d="M74.77,88.87,12,94.62,3.3,49.55A14.82,14.82,0,0,1,7,36.25Z"/></g><g id="hollywood"><path class="cls-2" d="M93.16,246.3l-7.35-.78V232.09l-4.91-.52V245l-7.35-.77V210l7.35.77v13.49l4.91.51V211.25l7.35.77Z"/><path class="cls-2" d="M119.16,244.19l-4.91,4.32-9.8-1-4.91-5.35V217.6l4.91-4.39,9.8,1,4.91,5.42ZM111.81,241V221.34l-4.91-.52v19.62Z"/><path class="cls-2" d="M142.71,252.49l-17.17-1.81V216.41l7.35.77v27l9.82,1Z"/><path class="cls-2" d="M164.78,254.81,147.61,253V218.73l7.35.77v27l9.82,1Z"/><path class="cls-2" d="M190.28,219.76l-7.36,17.38v16.2l-7.35-.78V236.37l-7.38-18.93,7.38.78,3.66,10,3.69-9.19Z"/><path class="cls-2" d="M224.87,222.92,218.5,256.6l-7.86-.83-2-11.65-2,11.24-7.84-.83-6.34-35,7.3.77,3.93,19.41L206.72,221l3.92.41,3,19.31,3.93-18.58Z"/><path class="cls-2" d="M248.16,257.75l-4.91,4.32-9.79-1-4.91-5.35V231.16l4.91-4.39,9.79,1,4.91,5.42Zm-7.35-3.24V234.89l-4.91-.51V254Z"/><path class="cls-2" d="M274.16,260.48l-4.91,4.32-9.8-1-4.91-5.36V233.89l4.91-4.39,9.8,1,4.91,5.43Zm-7.35-3.24V237.63l-4.91-.52v19.62Z"/><path class="cls-2" d="M300.16,260.27l-4.91,4.39-14.71-1.54V228.77l14.71,1.55,4.91,5.42ZM292.8,257V237.41l-4.91-.51v19.61Z"/></g></g><g id="ombres"><g id="bande-clap"><g class="cls-6"><polygon id="trace-bande-clap" class="cls-7" points="308.98 117.81 308.98 195.87 389.98 199.81 389.98 118.79 308.98 117.81"/></g></g><g id="bottom-clap"><g class="cls-8"><polygon id="trace-bottom-clap" class="cls-4" points="308.98 179.81 308.98 351.17 389.98 359.81 389.98 181.97 308.98 179.81"/></g></g></g><g id="trace-final"><path class="cls-5" d="M367,192.93v120a14.14,14.14,0,0,1-16,14.32L28,293.3a18.2,18.2,0,0,1-16-17.68v-120L148.73,170"/><path class="cls-5" d="M288.67,7.11l44.16-4.05c8.67-.79,17.09,5.73,18.79,14.58l5.6,29.05a15,15,0,0,1-2.43,11.75"/><path class="cls-5" d="M217.3,13.65l71.37-6.54,66.12,51.33a13.93,13.93,0,0,1-10.18,5.71l-55.69,5.1h0"/><polyline class="cls-5" points="145.91 20.18 217.3 13.65 288.91 69.25 217.54 75.8 217.53 75.8"/><polyline class="cls-5" points="74.53 26.73 145.91 20.18 217.53 75.8 146.15 82.33"/><path class="cls-5" d="M7,36.25a14.06,14.06,0,0,1,8.9-4.16l58.62-5.37,71.62,55.61L74.77,88.87"/><path class="cls-5" d="M74.77,88.87,12,94.62,3.3,49.55A14.82,14.82,0,0,1,7,36.25Z"/><line class="cls-5" x1="14.98" y1="94.93" x2="87.73" y2="102.58"/><line class="cls-5" x1="148.73" y1="169.99" x2="75.98" y2="162.34"/><polyline class="cls-5" points="221.48 177.65 148.73 170 87.73 102.58 160.48 110.22"/><polygon class="cls-5" points="294.23 185.28 221.48 177.65 160.48 110.22 233.23 117.88 294.23 185.28"/><polyline class="cls-5" points="366.98 192.94 294.23 185.28 233.23 117.88 305.98 125.53"/><path class="cls-9" d="M306,125.52l45,4.73a18.2,18.2,0,0,1,16,17.68v45Z"/><polygon class="cls-5" points="75.98 162.34 11.98 155.63 11.98 94.63 14.98 94.94 18.26 98.56 75.98 162.34"/></g></g></g></svg>