<svg xmlns="http://www.w3.org/2000/svg" xmlns:xlink="http://www.w3.org/1999/xlink" viewBox="0 0 358 320.09"><defs><style>.cls-1,.cls-11{fill:none;}.cls-2{fill:#fff;}.cls-3{fill:#aeaef4;}.cls-4{fill:#3d415e;}.cls-5{clip-path:url(#clip-path);}.cls-6{fill:#f4f4f4;}.cls-7{clip-path:url(#clip-path-2);}.cls-8{fill:#9595ef;}.cls-9{clip-path:url(#clip-path-3);}.cls-10{clip-path:url(#clip-path-4);}.cls-11{stroke:#000;stroke-miterlimit:10;stroke-width:6px;}</style><clipPath id="clip-path"><path id="masque-card" class="cls-1" d="M329,98.47v178c0,9.9-6.79,16.79-15.16,15.4L18.16,242.81C9.79,241.42,3,232.28,3,222.38v-178Zm-29.38,55.59c0-4.33-3-8.33-6.63-8.94L167.9,124.35a5.23,5.23,0,0,0-4.7,1.51,7.36,7.36,0,0,0-1.94,5.22c0,4.34,3,8.34,6.64,8.94L293,160.8a5.24,5.24,0,0,0,4.69-1.52A7.35,7.35,0,0,0,299.62,154.06Zm0,38.07c0-4.33-3-8.33-6.63-8.94L167.9,162.42a5.21,5.21,0,0,0-4.7,1.52,7.33,7.33,0,0,0-1.94,5.22c0,4.33,3,8.33,6.64,8.94L293,198.87a5.24,5.24,0,0,0,4.69-1.52A7.35,7.35,0,0,0,299.62,192.13Zm-69.18,26.59c0-4.34-3-8.33-6.63-8.94l-55.91-9.29a5.26,5.26,0,0,0-4.7,1.52,7.35,7.35,0,0,0-1.94,5.22c0,4.33,3,8.33,6.64,8.94l55.91,9.28a5.2,5.2,0,0,0,4.69-1.51A7.36,7.36,0,0,0,230.44,218.72ZM123,196.12c6.73-9,10.74-21,10.74-34.89,0-32.77-22.49-63.08-50.23-67.68s-50.22,18.23-50.22,51A75.26,75.26,0,0,0,44.06,183c9.2,15.33,23.47,26.57,39.49,29.23S113.85,208.4,123,196.12Z"/></clipPath><clipPath id="clip-path-2"><path id="masque-middle-ligne" class="cls-1" d="M293,183.19c3.67.61,6.63,4.61,6.63,8.94a7.35,7.35,0,0,1-1.94,5.22,5.24,5.24,0,0,1-4.69,1.52L167.9,178.1c-3.67-.61-6.64-4.61-6.64-8.94a7.33,7.33,0,0,1,1.94-5.22,5.21,5.21,0,0,1,4.7-1.52Z"/></clipPath><clipPath id="clip-path-3"><path id="masque-top-ligne" class="cls-1" d="M293,145.12c3.67.61,6.63,4.61,6.63,8.94a7.35,7.35,0,0,1-1.94,5.22A5.24,5.24,0,0,1,293,160.8L167.9,140c-3.67-.6-6.64-4.6-6.64-8.94a7.36,7.36,0,0,1,1.94-5.22,5.23,5.23,0,0,1,4.7-1.51Z"/></clipPath><clipPath id="clip-path-4"><path id="masque-top-card" class="cls-1" d="M329,72.72V98.47L3,44.34V18.58C3,8.68,9.79,1.79,18.16,3.18l295.68,49.1C322.21,53.68,329,62.82,329,72.72Z"/></clipPath></defs><g id="Calque_2" data-name="Calque 2"><g id="_5.id" data-name="5.id"><g id="couleurs-final"><path id="card" class="cls-2" d="M329,98.47v178c0,9.9-6.79,16.79-15.16,15.4L18.16,242.81C9.79,241.42,3,232.28,3,222.38v-178Zm-29.38,55.59c0-4.33-3-8.33-6.63-8.94L167.9,124.35a5.23,5.23,0,0,0-4.7,1.51,7.36,7.36,0,0,0-1.94,5.22c0,4.34,3,8.34,6.64,8.94L293,160.8a5.24,5.24,0,0,0,4.69-1.52A7.35,7.35,0,0,0,299.62,154.06Zm0,38.07c0-4.33-3-8.33-6.63-8.94L167.9,162.42a5.21,5.21,0,0,0-4.7,1.52,7.33,7.33,0,0,0-1.94,5.22c0,4.33,3,8.33,6.64,8.94L293,198.87a5.24,5.24,0,0,0,4.69-1.52A7.35,7.35,0,0,0,299.62,192.13Zm-69.18,26.59c0-4.34-3-8.33-6.63-8.94l-55.91-9.29a5.26,5.26,0,0,0-4.7,1.52,7.35,7.35,0,0,0-1.94,5.22c0,4.33,3,8.33,6.64,8.94l55.91,9.28a5.2,5.2,0,0,0,4.69-1.51A7.36,7.36,0,0,0,230.44,218.72ZM123,196.12c6.73-9,10.74-21,10.74-34.89,0-32.77-22.49-63.08-50.23-67.68s-50.22,18.23-50.22,51A75.26,75.26,0,0,0,44.06,183c9.2,15.33,23.47,26.57,39.49,29.23S113.85,208.4,123,196.12Z"/><path id="top-card" class="cls-3" d="M329,72.72V98.47L3,44.34V18.58C3,8.68,9.79,1.79,18.16,3.18l295.68,49.1C322.21,53.68,329,62.82,329,72.72Z"/><path id="top-line" class="cls-3" d="M293,145.12c3.67.61,6.63,4.61,6.63,8.94a7.35,7.35,0,0,1-1.94,5.22A5.24,5.24,0,0,1,293,160.8L167.9,140c-3.67-.6-6.64-4.6-6.64-8.94a7.36,7.36,0,0,1,1.94-5.22,5.23,5.23,0,0,1,4.7-1.51Z"/><path id="middle-line" class="cls-3" d="M293,183.19c3.67.61,6.63,4.61,6.63,8.94a7.35,7.35,0,0,1-1.94,5.22,5.24,5.24,0,0,1-4.69,1.52L167.9,178.1c-3.67-.61-6.64-4.61-6.64-8.94a7.33,7.33,0,0,1,1.94-5.22,5.21,5.21,0,0,1,4.7-1.52Z"/><path id="bottom-line" class="cls-3" d="M223.81,209.78c3.67.61,6.63,4.6,6.63,8.94a7.36,7.36,0,0,1-1.94,5.22,5.2,5.2,0,0,1-4.69,1.51l-55.91-9.28c-3.67-.61-6.64-4.61-6.64-8.94A7.35,7.35,0,0,1,163.2,202a5.26,5.26,0,0,1,4.7-1.52Z"/><path id="background-avatar" class="cls-4" d="M133.78,161.23c0,13.85-4,25.91-10.74,34.89-1.92-18.56-12.68-35.34-27.06-43.3,4-3.43,6.53-9.06,6.53-15.82,0-12.37-8.49-23.8-19-25.54s-19,6.88-19,19.25a28.28,28.28,0,0,0,6.53,18C56.74,151.88,46,165.09,44.06,183a75.26,75.26,0,0,1-10.73-38.46c0-32.77,22.48-55.61,50.22-51S133.78,128.46,133.78,161.23Z"/><path id="body-avatar" class="cls-3" d="M96,152.82c14.38,8,25.14,24.74,27.06,43.3-9.19,12.28-23.46,18.78-39.49,16.12S53.26,198.34,44.06,183c1.93-17.92,12.68-31.13,27.07-34.32a21,21,0,0,0,12.42,7.56A14.92,14.92,0,0,0,96,152.82Z"/><path id="head-avatar" class="cls-3" d="M102.51,137c0,6.76-2.53,12.39-6.53,15.82a14.92,14.92,0,0,1-12.43,3.43,21,21,0,0,1-12.42-7.56,28.28,28.28,0,0,1-6.53-18c0-12.37,8.48-21,19-19.25S102.51,124.63,102.51,137Z"/></g><g id="ombres"><g id="card-2" data-name="card"><g class="cls-5"><polygon id="trace-card" class="cls-6" points="286 80.09 286 305.74 358 320.09 358 88.86 286 80.09"/></g></g><g id="middle-ligne"><g class="cls-7"><polygon id="trace-middle-ligne" class="cls-8" points="286 176.09 286 207.12 308 209.09 308 177.29 286 176.09"/></g></g><g id="top-ligne"><g class="cls-9"><polygon id="trace-top-ligne" class="cls-8" points="286 134.09 286 167.94 308 170.09 308 135.4 286 134.09"/></g></g><g id="top-card-2" data-name="top-card"><g class="cls-10"><polygon id="trace-top-card" class="cls-8" points="286 33.09 286 106.42 358 111.09 358 35.94 286 33.09"/></g></g></g><g id="trace-final"><path class="cls-11" d="M329,98.47V72.72c0-9.9-6.79-19-15.16-20.44L18.16,3.18C9.79,1.79,3,8.68,3,18.58V44.34"/><path class="cls-11" d="M3,44.34v178c0,9.9,6.79,19,15.16,20.43l295.68,49.1c8.37,1.39,15.16-5.5,15.16-15.4v-178Z"/><path class="cls-11" d="M123,196.12c6.73-9,10.74-21,10.74-34.89,0-32.77-22.49-63.08-50.23-67.68s-50.22,18.23-50.22,51A75.26,75.26,0,0,0,44.06,183"/><path class="cls-11" d="M71.13,148.69a28.28,28.28,0,0,1-6.53-18c0-12.37,8.48-21,19-19.25s19,13.17,19,25.54c0,6.76-2.53,12.39-6.53,15.82"/><path class="cls-11" d="M123,196.12c-9.19,12.28-23.46,18.78-39.49,16.12S53.26,198.34,44.06,183c1.93-17.92,12.68-31.13,27.07-34.32a21,21,0,0,0,12.42,7.56A14.92,14.92,0,0,0,96,152.82C110.36,160.78,121.12,177.56,123,196.12Z"/><path class="cls-11" d="M293,145.12c3.67.61,6.63,4.61,6.63,8.94a7.35,7.35,0,0,1-1.94,5.22A5.24,5.24,0,0,1,293,160.8L167.9,140c-3.67-.6-6.64-4.6-6.64-8.94a7.36,7.36,0,0,1,1.94-5.22,5.23,5.23,0,0,1,4.7-1.51Z"/><path class="cls-11" d="M293,183.19c3.67.61,6.63,4.61,6.63,8.94a7.35,7.35,0,0,1-1.94,5.22,5.24,5.24,0,0,1-4.69,1.52L167.9,178.1c-3.67-.61-6.64-4.61-6.64-8.94a7.33,7.33,0,0,1,1.94-5.22,5.21,5.21,0,0,1,4.7-1.52Z"/><path class="cls-11" d="M223.81,209.78c3.67.61,6.63,4.6,6.63,8.94a7.36,7.36,0,0,1-1.94,5.22,5.2,5.2,0,0,1-4.69,1.51l-55.91-9.28c-3.67-.61-6.64-4.61-6.64-8.94A7.35,7.35,0,0,1,163.2,202a5.26,5.26,0,0,1,4.7-1.52Z"/></g></g></g></svg>