<svg xmlns="http://www.w3.org/2000/svg" xmlns:xlink="http://www.w3.org/1999/xlink" viewBox="0 0 486.32 415.17"><defs><style>.cls-1,.cls-14{fill:none;}.cls-2{fill:#f4878f;}.cls-3{fill:#fbccd3;}.cls-4{fill:#fff;}.cls-5{fill:#f8e27e;}.cls-6{fill:#ffebd2;}.cls-7{clip-path:url(#clip-path);}.cls-8{fill:#ffd071;}.cls-9{clip-path:url(#clip-path-2);}.cls-10{fill:#ffd1ac;}.cls-11{clip-path:url(#clip-path-3);}.cls-12{clip-path:url(#clip-path-4);}.cls-13{clip-path:url(#clip-path-5);}.cls-14{stroke:#000;stroke-linecap:round;stroke-linejoin:round;stroke-width:6px;}</style><clipPath id="clip-path"><path id="masque-smiley" class="cls-1" d="M191.32,97.41c32.58,0,59,28.75,59,64.21s-26.42,64.21-59,64.21-59-28.75-59-64.21S158.74,97.41,191.32,97.41Zm21,50.06a5,5,0,1,0-5,5.44A5.24,5.24,0,0,0,212.32,147.47Zm-40-5.44a5,5,0,1,0-5,5.44A5.23,5.23,0,0,0,172.32,142Z"/></clipPath><clipPath id="clip-path-2"><path id="masque-main-pouce" class="cls-1" d="M289.55,290.73A72,72,0,0,1,271.1,255a98.34,98.34,0,0,1-.78-33.54A53.26,53.26,0,0,1,283.24,191c9.54-11,21.91-16.59,28.82-19.06l14.6-77c3.44-1.22,8.69-1.75,16.66-.75,26,3.27,17,51.15,17,51.15l-9,47.89,13.34,35.08a98.21,98.21,0,0,1,3.66,57.43l14.25,12a18.4,18.4,0,0,1,5.86,17.92,109.67,109.67,0,0,1-13.11,33.22,100.77,100.77,0,0,1-30.06,31.73,15.16,15.16,0,0,1-19.35-1.92l-12.59-12.39-5,3.07c-9.57,5.9-26.2,7.58-38.49,7.95A20,20,0,0,0,275.1,367l10.58-55.84Z"/></clipPath><clipPath id="clip-path-3"><path id="masque-index-doigt" class="cls-1" d="M101,90.84l13.31,3.3s23,9.8,12,34.83c-4.27,9.73-12.47,13.54-20.89,14.56-.8.1-1.59.17-2.39.22a41.39,41.39,0,0,1-11.87-1,46.93,46.93,0,0,1-24.92-15.36,121.68,121.68,0,0,1-12.34-16.93C48.3,101,44.23,90.28,45.32,80c1.42-13.44,9.62-21.23,17.83-25.72A45.07,45.07,0,0,1,88.81,49.1l19.77,1.8Z"/></clipPath><clipPath id="clip-path-4"><path id="massque-majeur-doigt" class="cls-1" d="M105.43,143.53c5.91,7.43,9.77,14.95,8.89,21.35-1.38,10-5.08,15-9.76,17.7-5.51,3.13-12.35,2.94-18.28,3.57-1.12.12-2.25.2-3.37.23a46.44,46.44,0,0,1-8.59-.52c-12.39-2-23.88-8.91-32.3-19.42-7.63-9.53-13.38-22.53-7.7-37.47,4.22-10.91,12.6-16.06,19.59-18.49a121.68,121.68,0,0,0,12.34,16.93,46.93,46.93,0,0,0,24.92,15.36,41.39,41.39,0,0,0,11.87,1C103.84,143.7,104.63,143.63,105.43,143.53Z"/></clipPath><clipPath id="clip-path-5"><path id="masque-petit-doigt" class="cls-1" d="M82.91,186.38l-8.6,45.37-.55.18c-16.33,5.29-33.91,5.21-49.26-.82-5.5-2.17-14.56-6.69-19.07-16.74a28.3,28.3,0,0,1-2.38-9.58,20.43,20.43,0,0,1,10-19c.33-.19.67-.38,1-.56,15.09-7.91,30.59,8.25,49.68,4.29a44.8,44.8,0,0,0,10.61-3.67A46.44,46.44,0,0,0,82.91,186.38Z"/></clipPath></defs><g id="Calque_2" data-name="Calque 2"><g id="_9.reseaux-sociaux" data-name="9.reseaux-sociaux"><g id="couleurs-final"><g id="phone"><g id="tranche-right-phone"><path class="cls-2" d="M289.55,290.73l-3.87,20.42L275.1,367a20,20,0,0,1-5.24,10.26h0a17,17,0,0,1-16,5l-32.52-7.31,14.37,3c6.45,1.35,12.7-3.19,14-10.19l11.69-61.6L271.1,255A72,72,0,0,0,289.55,290.73Z"/><path class="cls-2" d="M317.87,44.24c9.74,2.18,16,12.54,14,23.14l-2.12,11.19-3.09,16.32-14.6,77.05c-6.91,2.47-19.28,8.08-28.82,19.06L305.57,73.3l3.34-17.61c1.33-7-2.79-13.91-9.24-15.41l-14.88-3.46Z"/></g><path id="bottom-phone" class="cls-3" d="M261.4,306.15l-11.69,61.6c-1.32,7-7.57,11.54-14,10.19l-14.37-3L71.92,341.39c-9.74-2.17-16-12.54-14-23.14l9.85-52Zm-90.33,18.09c1.56-8.24-2.43-16.1-8.92-17.56s-13,4-14.58,12.29,2.43,16.1,8.92,17.56S169.51,332.49,171.07,324.24Z"/><path id="top-phone" class="cls-3" d="M299.67,40.28c6.45,1.5,10.57,8.38,9.24,15.41L305.57,73.3,112.3,31.23l2.39-12.59C116.69,8,126.21,1.23,136,3.41L284.79,36.82Z"/><path id="screen" class="cls-4" d="M305.57,73.3,283.24,191a53.26,53.26,0,0,0-12.92,30.48A98.34,98.34,0,0,0,271.1,255l-9.7,51.13L67.77,266.29l6.54-34.54,8.6-45.37c1.12,0,2.25-.11,3.37-.23,5.93-.63,12.77-.44,18.28-3.57,4.68-2.66,8.38-7.71,9.76-17.7.88-6.4-3-13.92-8.89-21.35,8.42-1,16.62-4.83,20.89-14.56,11-25-12-34.83-12-34.83L101,90.84l7.57-39.94,3.72-19.67Zm-55.25,88.32c0-35.46-26.42-64.21-59-64.21s-59,28.75-59,64.21,26.42,64.21,59,64.21S250.32,197.08,250.32,161.62Z"/><g id="smiley"><path id="smiley-2" data-name="smiley" class="cls-5" d="M191.32,97.41c32.58,0,59,28.75,59,64.21s-26.42,64.21-59,64.21-59-28.75-59-64.21S158.74,97.41,191.32,97.41Zm21,50.06a5,5,0,1,0-5,5.44A5.24,5.24,0,0,0,212.32,147.47Zm-40-5.44a5,5,0,1,0-5,5.44A5.23,5.23,0,0,0,172.32,142Z"/><ellipse id="right-eye-smiley" cx="207.32" cy="147.47" rx="5" ry="5.44"/><ellipse id="left-eye-smiley" cx="167.32" cy="142.03" rx="5" ry="5.44"/></g></g><g id="hand"><path id="main-pouce" class="cls-6" d="M289.55,290.73A72,72,0,0,1,271.1,255a98.34,98.34,0,0,1-.78-33.54A53.26,53.26,0,0,1,283.24,191c9.54-11,21.91-16.59,28.82-19.06l14.6-77c3.44-1.22,8.69-1.75,16.66-.75,26,3.27,17,51.15,17,51.15l-9,47.89,13.34,35.08a98.21,98.21,0,0,1,3.66,57.43l14.25,12a18.4,18.4,0,0,1,5.86,17.92,109.67,109.67,0,0,1-13.11,33.22,100.77,100.77,0,0,1-30.06,31.73,15.16,15.16,0,0,1-19.35-1.92l-12.59-12.39-5,3.07c-9.57,5.9-26.2,7.58-38.49,7.95A20,20,0,0,0,275.1,367l10.58-55.84Z"/><path id="index-doigt" class="cls-6" d="M101,90.84l13.31,3.3s23,9.8,12,34.83c-4.27,9.73-12.47,13.54-20.89,14.56-.8.1-1.59.17-2.39.22a41.39,41.39,0,0,1-11.87-1,46.93,46.93,0,0,1-24.92-15.36,121.68,121.68,0,0,1-12.34-16.93C48.3,101,44.23,90.28,45.32,80c1.42-13.44,9.62-21.23,17.83-25.72A45.07,45.07,0,0,1,88.81,49.1l19.77,1.8Z"/><path id="majeur-doigt" class="cls-6" d="M105.43,143.53c5.91,7.43,9.77,14.95,8.89,21.35-1.38,10-5.08,15-9.76,17.7-5.51,3.13-12.35,2.94-18.28,3.57-1.12.12-2.25.2-3.37.23a46.44,46.44,0,0,1-8.59-.52c-12.39-2-23.88-8.91-32.3-19.42-7.63-9.53-13.38-22.53-7.7-37.47,4.22-10.91,12.6-16.06,19.59-18.49a121.68,121.68,0,0,0,12.34,16.93,46.93,46.93,0,0,0,24.92,15.36,41.39,41.39,0,0,0,11.87,1C103.84,143.7,104.63,143.63,105.43,143.53Z"/><path id="petit-doigt" class="cls-6" d="M82.91,186.38l-8.6,45.37-.55.18c-16.33,5.29-33.91,5.21-49.26-.82-5.5-2.17-14.56-6.69-19.07-16.74a28.3,28.3,0,0,1-2.38-9.58,20.43,20.43,0,0,1,10-19c.33-.19.67-.38,1-.56,15.09-7.91,30.59,8.25,49.68,4.29a44.8,44.8,0,0,0,10.61-3.67A46.44,46.44,0,0,0,82.91,186.38Z"/></g></g><g id="ombres"><g id="smiley-3" data-name="smiley"><g class="cls-7"><path id="trace-smiley" class="cls-8" d="M171.32,91.17s64,17,62,75-66,74-66,74l83,9,24-143-51-15Z"/></g></g><g id="main-pouce-2" data-name="main-pouce"><g class="cls-9"><path id="trace-main-pouce" class="cls-10" d="M339.32,77.17s7,61-7,114l-3,12s23,52,15,88l18.47,14.37a14.44,14.44,0,0,1,4.51,16.86c-7.87,19.19-26.14,60.19-45,76.77l164,16-97-338Z"/></g></g><g id="index-doigt-2" data-name="index-doigt"><g class="cls-11"><path id="trace-index-doigt" class="cls-10" d="M61.32,136.17s69,2,53-53l35,14-26,60-52-10Z"/></g></g><g id="majeur-doigt-2" data-name="majeur-doigt"><g class="cls-12"><path id="trace-majeur-doigt" class="cls-10" d="M77.32,123.17s20,37,10,78h33v-54Z"/></g></g><g id="petit-doigt-2" data-name="petit-doigt"><g class="cls-13"><path id="trace-petit-doigt" class="cls-10" d="M35.32,246.17s44-48,48-72h15l-6,64Z"/></g></g></g><g id="trace-final"><line class="cls-14" x1="74.31" y1="231.75" x2="67.77" y2="266.29"/><line class="cls-14" x1="112.3" y1="31.23" x2="108.58" y2="50.9"/><path class="cls-14" d="M221.32,374.92,71.92,341.39c-9.74-2.17-16-12.54-14-23.14l9.85-52L261.4,306.15"/><line class="cls-14" x1="283.24" y1="191" x2="305.57" y2="73.3"/><path class="cls-14" d="M284.79,36.82l33.08,7.42c9.74,2.18,16,12.54,14,23.14l-2.12,11.19-3.09,16.32"/><path class="cls-14" d="M284.79,36.82l14.88,3.46c6.45,1.5,10.57,8.38,9.24,15.41L305.57,73.3,112.3,31.23l2.39-12.59C116.69,8,126.21,1.23,136,3.41Z"/><line class="cls-14" x1="284.79" y1="36.82" x2="283.82" y2="36.59"/><path class="cls-14" d="M269.86,377.25h0a17,17,0,0,1-16,5l-32.52-7.31,14.37,3c6.45,1.35,12.7-3.19,14-10.19l11.69-61.6L271.1,255"/><path class="cls-14" d="M171.07,324.24c-1.56,8.25-8.09,13.75-14.58,12.29S146,327.21,147.57,319s8.09-13.74,14.58-12.29S172.63,316,171.07,324.24Z"/><line class="cls-14" x1="203.32" y1="34.5" x2="231.32" y2="40.59"/><ellipse class="cls-14" cx="191.32" cy="161.62" rx="59" ry="64.21"/><path class="cls-14" d="M312.06,171.94a50.29,50.29,0,0,1,5.26-1.61"/><path class="cls-14" d="M289.55,290.73a54.93,54.93,0,0,0,12.77,10.2"/><path class="cls-14" d="M326.66,94.89c3.44-1.22,8.69-1.75,16.66-.75,26,3.27,17,51.15,17,51.15l-9,47.89,13.34,35.08a98.21,98.21,0,0,1,3.66,57.43l14.25,12a18.4,18.4,0,0,1,5.86,17.92,109.67,109.67,0,0,1-13.11,33.22,100.77,100.77,0,0,1-30.06,31.73,15.16,15.16,0,0,1-19.35-1.92l-12.59-12.39-5,3.07c-9.57,5.9-26.2,7.58-38.49,7.95A20,20,0,0,0,275.1,367l10.58-55.84,3.87-20.42A72,72,0,0,1,271.1,255a98.34,98.34,0,0,1-.78-33.54A53.26,53.26,0,0,1,283.24,191c9.54-11,21.91-16.59,28.82-19.06Z"/><path class="cls-14" d="M82.91,186.38l-8.6,45.37-.55.18c-16.33,5.29-33.91,5.21-49.26-.82-5.5-2.17-14.56-6.69-19.07-16.74a28.3,28.3,0,0,1-2.38-9.58,20.43,20.43,0,0,1,10-19c.33-.19.67-.38,1-.56,15.09-7.91,30.59,8.25,49.68,4.29a44.8,44.8,0,0,0,10.61-3.67"/><path class="cls-14" d="M105.43,143.53c5.91,7.43,9.77,14.95,8.89,21.35-1.38,10-5.08,15-9.76,17.7-5.51,3.13-12.35,2.94-18.28,3.57-1.12.12-2.25.2-3.37.23a46.44,46.44,0,0,1-8.59-.52c-12.39-2-23.88-8.91-32.3-19.42-7.63-9.53-13.38-22.53-7.7-37.47,4.22-10.91,12.6-16.06,19.59-18.49"/><line class="cls-14" x1="101.01" y1="90.84" x2="92.32" y2="88.7"/><path class="cls-14" d="M101,90.84l13.31,3.3s23,9.8,12,34.83c-4.27,9.73-12.47,13.54-20.89,14.56-.8.1-1.59.17-2.39.22a41.39,41.39,0,0,1-11.87-1,46.93,46.93,0,0,1-24.92-15.36,121.68,121.68,0,0,1-12.34-16.93C48.3,101,44.23,90.28,45.32,80c1.42-13.44,9.62-21.23,17.83-25.72A45.07,45.07,0,0,1,88.81,49.1l19.77,1.8Z"/><path class="cls-14" d="M167.32,160.53a24.38,24.38,0,0,0,14,9.8c10.05,2.36,17.74-3.39,19-4.36"/></g></g></g></svg>