<svg xmlns="http://www.w3.org/2000/svg" xmlns:xlink="http://www.w3.org/1999/xlink" viewBox="0 0 319.55 244"><defs><style>.cls-1,.cls-5,.cls-6{fill:none;}.cls-2{fill:#ece0e6;}.cls-3{clip-path:url(#clip-path);}.cls-4{fill:#d8cbd2;}.cls-5,.cls-6{stroke:#000;stroke-width:6px;}.cls-5{stroke-linecap:round;stroke-linejoin:round;}.cls-6{stroke-miterlimit:10;}</style><clipPath id="clip-path"><path id="masque-front-key" class="cls-1" d="M291.81,220.32c2,8-4.58,15.68-13.42,15.68H80.17c-14.81,0-28.16-8.27-33.89-21L4.92,113.66A21.58,21.58,0,0,1,3.7,99.31L21.55,15.13a15.64,15.64,0,0,1,5-7.94L67.06,98.31c4.26,9.59,14.3,15.85,25.46,15.85H272.69Z"/></clipPath></defs><g id="Calque_2" data-name="Calque 2"><g id="_7.streaming" data-name="7.streaming"><g id="couleurs-final"><path id="top-button" class="cls-2" d="M221.71,17.35l51,96.81H92.52c-11.16,0-21.2-6.26-25.46-15.85L26.59,7.19A17.78,17.78,0,0,1,38.14,3H197C207.49,3,217.09,8.57,221.71,17.35Z"/><path id="bottom-button" class="cls-2" d="M291.81,220.32c2,8-4.58,15.68-13.42,15.68H80.17c-14.81,0-28.16-8.27-33.89-21L4.92,113.66A21.58,21.58,0,0,1,3.7,99.31L21.55,15.13a15.64,15.64,0,0,1,5-7.94L67.06,98.31c4.26,9.59,14.3,15.85,25.46,15.85H272.69Z"/><g id="pause"><path d="M198.62,68.72a1.19,1.19,0,0,1-1.19,1.61l-9.37-.1a1.26,1.26,0,0,1-1.17-.76L174.3,38.57a1.2,1.2,0,0,1,1.19-1.6h9a1.29,1.29,0,0,1,1.19.74Z"/><path d="M174.57,68.72a1.2,1.2,0,0,1-1.21,1.61l-9.37-.1a1.3,1.3,0,0,1-1.17-.76l-12.58-30.9a1.19,1.19,0,0,1,1.18-1.6h9a1.26,1.26,0,0,1,1.18.74Z"/></g><path id="play" d="M138.68,47a2.58,2.58,0,0,1,.84,4.66L112.27,70.33a2.93,2.93,0,0,1-4.34-1.19l-12.24-30a2.73,2.73,0,0,1,3.49-3.46Z"/></g><g id="ombres"><g id="front-key"><g class="cls-3"><polygon id="trace-front-key" class="cls-4" points="53.55 244 81.55 104 286.55 96 319.55 244 53.55 244"/></g></g></g><g id="trace-final"><path class="cls-5" d="M26.59,7.19a15.64,15.64,0,0,0-5,7.94L3.7,99.31a21.58,21.58,0,0,0,1.22,14.35L46.28,215c5.73,12.71,19.08,21,33.89,21H278.39c8.84,0,15.39-7.65,13.42-15.68L272.69,114.16l-51-96.81C217.09,8.57,207.49,3,197,3H38.14A17.78,17.78,0,0,0,26.59,7.19Z"/><path class="cls-5" d="M26.59,7.19,67.06,98.31c4.26,9.59,14.3,15.85,25.46,15.85H272.69"/><path class="cls-6" d="M138.68,47a2.58,2.58,0,0,1,.84,4.66L112.27,70.33a2.93,2.93,0,0,1-4.34-1.19l-12.24-30a2.73,2.73,0,0,1,3.49-3.46Z"/><path class="cls-6" d="M174.57,68.72a1.2,1.2,0,0,1-1.21,1.61l-9.37-.1a1.3,1.3,0,0,1-1.17-.76l-12.58-30.9a1.19,1.19,0,0,1,1.18-1.6h9a1.26,1.26,0,0,1,1.18.74Z"/><path class="cls-6" d="M198.62,68.72a1.19,1.19,0,0,1-1.19,1.61l-9.37-.1a1.26,1.26,0,0,1-1.17-.76L174.3,38.57a1.2,1.2,0,0,1,1.19-1.6h9a1.29,1.29,0,0,1,1.19.74Z"/></g></g></g></svg>