<svg xmlns="http://www.w3.org/2000/svg" xmlns:xlink="http://www.w3.org/1999/xlink" viewBox="0 0 485.24 337"><defs><style>.cls-1,.cls-12{fill:none;}.cls-2{fill:#77decf;}.cls-3{fill:#b7e6dd;}.cls-4{fill:#fff;}.cls-5{clip-path:url(#clip-path);}.cls-6{fill:#f4f4f4;}.cls-7{clip-path:url(#clip-path-2);}.cls-8{clip-path:url(#clip-path-3);}.cls-9{clip-path:url(#clip-path-4);}.cls-10{fill:#4ad3bf;}.cls-11{clip-path:url(#clip-path-5);}.cls-12{stroke:#000;stroke-linecap:round;stroke-linejoin:round;stroke-width:6px;}</style><clipPath id="clip-path" transform="translate(0 6.78)"><polygon id="masque-screen-computer" class="cls-1" points="334.36 180.35 62.4 205.92 22.89 35.07 296.01 21.12 334.36 180.35"/></clipPath><clipPath id="clip-path-2" transform="translate(0 6.78)"><path id="masque-top-computer" class="cls-1" d="M356.45,196.62,311,11.46A11.14,11.14,0,0,0,299.6,3L11.54,18.23A9,9,0,0,0,3.23,29.28L48.45,224.51l2.4,1.92L357.07,197Zm-294,9.3L22.89,35.07,296,21.12l38.35,159.23Z"/></clipPath><clipPath id="clip-path-3" transform="translate(0 6.78)"><path id="masque-bottom-computer" class="cls-1" d="M459,262.39l-.27.48L149.57,303.54,50.85,226.43,357.08,197h0Zm-303.62,21.4,258.19-31.2-60.21-39.7L99.2,237.3Z"/></clipPath><clipPath id="clip-path-4" transform="translate(0 6.78)"><path id="masque-keyboard-computer" class="cls-1" d="M413.57,252.59l-258.19,31.2L99.2,237.3l254.16-24.41Zm-170.48,9.59,66.37-8L294,244l-65.34,6.27Z"/></clipPath><clipPath id="clip-path-5" transform="translate(0 6.78)"><path id="masque-tranche-bottom-computer" class="cls-1" d="M463.37,270.39v8.52a9.51,9.51,0,0,1-8.29,9.43L153.88,327.1a15,15,0,0,1-11.7-3.51L52.9,246.92a12.7,12.7,0,0,1-4.44-9.66v-10.6l2.39-.23,98.72,77.11,309.16-40.67.27-.48A9.51,9.51,0,0,1,463.37,270.39Z"/></clipPath></defs><g id="Calque_2" data-name="Calque 2"><g id="_8.techno" data-name="8.techno"><g id="couleurs-final"><path id="tranche-bottom" class="cls-2" d="M463.37,270.39v8.52a9.51,9.51,0,0,1-8.29,9.43L153.88,327.1a15,15,0,0,1-11.7-3.51L52.9,246.92a12.7,12.7,0,0,1-4.44-9.66v-10.6l2.39-.23,98.72,77.11,309.16-40.67.27-.48A9.51,9.51,0,0,1,463.37,270.39Z" transform="translate(0 6.78)"/><path id="encadrement-keyboard" class="cls-3" d="M459,262.39l-.27.48L149.57,303.54,50.85,226.43,357.08,197h0Zm-303.62,21.4,258.19-31.2-60.21-39.7L99.2,237.3Z" transform="translate(0 6.78)"/><path id="keyboard" class="cls-2" d="M413.57,252.59l-258.19,31.2L99.2,237.3l254.16-24.41Zm-170.48,9.59,66.37-8L294,244l-65.34,6.27Z" transform="translate(0 6.78)"/><path id="encadrement-screen" class="cls-3" d="M356.45,196.62,311,11.46A11.14,11.14,0,0,0,299.6,3L11.54,18.23A9,9,0,0,0,3.23,29.28L48.45,224.51l2.4,1.92L357.07,197Zm-294,9.3L22.89,35.07,296,21.12l38.35,159.23Z" transform="translate(0 6.78)"/><polygon id="screen" class="cls-4" points="334.36 187.13 62.4 212.7 22.89 41.85 296.01 27.9 334.36 187.13"/><polygon id="trackpad" class="cls-3" points="309.46 260.94 243.09 268.96 228.64 257.01 293.98 250.74 309.46 260.94"/></g><g id="ombres"><g id="screen-computer"><g class="cls-5"><polygon id="trace-screen-computer" class="cls-6" points="256.24 0 303.5 208.95 405.93 276.59 406.24 313 485.24 300 483.24 262 365.24 194 319.24 0 256.24 0"/></g></g><g id="top-computer"><g class="cls-7"><polygon id="trace-top-computer" class="cls-2" points="256.24 0 303.5 208.95 405.93 276.59 406.24 313 485.24 300 483.24 262 365.24 194 319.24 0 256.24 0"/></g></g><g id="bottom-computer"><g class="cls-8"><polygon id="trace-bottom-computer" class="cls-2" points="256.24 0 303.5 208.95 405.93 276.59 406.24 313 485.24 300 483.24 262 365.24 194 319.24 0 256.24 0"/></g></g><g id="keyboard-computer"><g class="cls-9"><polygon id="trace-keyboard-computer" class="cls-10" points="256.24 0 303.5 208.95 405.93 276.59 406.24 313 485.24 300 483.24 262 365.24 194 319.24 0 256.24 0"/></g></g><g id="tranche-bottom-computer"><g class="cls-11"><polygon id="trace-tranche-bottom-computer" class="cls-10" points="256.24 0 303.5 208.95 405.93 276.59 406.24 313 485.24 300 483.24 262 365.24 194 319.24 0 256.24 0"/></g></g></g><g id="trace-final"><path class="cls-12" d="M357.09,197,459,262.39a9.51,9.51,0,0,1,4.37,8v8.52a9.51,9.51,0,0,1-8.29,9.43L153.88,327.1a15,15,0,0,1-11.7-3.51L52.9,246.92a12.7,12.7,0,0,1-4.44-9.66V224.51L3.24,29.28a9,9,0,0,1,8.31-11L299.61,3A11.11,11.11,0,0,1,311,11.46l45.46,185.16.63.41" transform="translate(0 6.78)"/><polyline class="cls-12" points="48.46 231.29 50.85 233.21 149.57 310.32 458.73 269.64"/><polyline class="cls-12" points="48.46 233.44 50.85 233.21 357.08 203.81 357.09 203.81"/><polygon class="cls-12" points="353.36 219.67 99.2 244.08 155.38 290.57 413.57 259.37 353.36 219.67"/><polygon class="cls-12" points="293.98 250.74 228.64 257.01 243.09 268.96 309.46 260.94 293.98 250.74"/><polygon class="cls-12" points="22.89 41.85 62.41 212.7 334.37 187.13 296.01 27.9 22.89 41.85"/></g></g></g></svg>