<?xml version="1.0" encoding="utf-8"?>
<!-- Generator: Adobe Illustrator 21.1.0, SVG Export Plug-In . SVG Version: 6.00 Build 0)  -->
<svg version="1.1" id="Layer_1" xmlns="http://www.w3.org/2000/svg" xmlns:xlink="http://www.w3.org/1999/xlink" x="0px" y="0px"
	 viewBox="0 0 62.1 26.9" style="enable-background:new 0 0 62.1 26.9;" xml:space="preserve">
<style type="text/css">
	.st0{fill:#FFFFFF;}
	.st1{fill:#FFFFFF;}
</style>
<g>
	<g>
		<path class="st0" d="M11.1,26.4c-1.2,0.3-3.1,0.5-4.8,0.5C1.2,26.9,0,23.7,0,18c0-5.8,1-9,6.4-9c1.8,0,3.6,0.3,4.8,0.5l-0.1,1.4
			c-1.1-0.2-3.1-0.5-4.5-0.5c-4.2,0-4.9,2.6-4.9,7.6c0,5,0.7,7.6,4.9,7.6c1.5,0,3.3-0.3,4.5-0.5L11.1,26.4z"/>
		<path class="st0" d="M15.1,18c0-5.8,1.4-9,6.8-9c5.4,0,6.9,3.2,6.9,9c0,6-1.4,8.9-6.9,8.9S15.1,23.8,15.1,18z M27.2,18
			c0-4.9-1-7.6-5.3-7.6c-4.3,0-5.2,2.7-5.2,7.6c0,5,0.9,7.5,5.2,7.5C26.3,25.5,27.2,23.2,27.2,18z"/>
		<path class="st0" d="M41.2,19.8h-5.4v6.9h-1.6V9.2h6.4c3.6,0,5.5,1.5,5.5,5.2c0,2.7-1,4.4-3.4,5.1l3.6,7.2h-1.7L41.2,19.8z
			 M40.7,10.6h-4.9v7.8h4.9c2.9,0,3.8-1.6,3.8-4C44.6,11.8,43.4,10.6,40.7,10.6z"/>
		<path class="st0" d="M51.5,26.7V9.2h10.5v1.4h-9v6.4h7.5v1.4h-7.5v6.8h9v1.4H51.5z"/>
	</g>
	<g>
		<polygon class="st1" points="22.9,5.7 19.7,5.7 22.5,0.7 22.9,0 22.1,0 18.4,0 18.4,0.7 21.7,0.7 18.8,5.7 18.4,6.4 19.2,6.4
			22.5,6.4 		"/>
		<g>
			<polygon class="st1" points="31.8,0 27.3,0 27.3,0.7 31.4,0.7 			"/>
			<polygon class="st1" points="31.8,2.8 27.3,2.8 27.3,3.5 31.4,3.5 			"/>
			<polygon class="st1" points="31.8,5.7 27.3,5.7 27.3,6.4 31.4,6.4 			"/>
		</g>
		<path class="st1" d="M40.7,2V1.6C40.7,0.7,40,0,39.1,0h-2.2h-0.7v3.5v2.8h0.7V3.5h1.3l1.6,2.8h0.8l-1.6-2.8h0.1
			C40,3.5,40.7,2.8,40.7,2z M36.9,0.7h2.2c0.5,0,0.9,0.4,0.9,0.9V2c0,0.5-0.4,0.9-0.9,0.9h-2.2V0.7z"/>
		<path class="st1" d="M5.1,2V1.6C5.1,0.7,4.4,0,3.5,0H1.3H0.6v3.5v2.8h0.7V3.5h1.3l1.6,2.8h0.8L3.5,3.5h0.1C4.4,3.5,5.1,2.8,5.1,2z
			 M1.3,0.7h2.2c0.5,0,0.9,0.4,0.9,0.9V2c0,0.5-0.4,0.9-0.9,0.9H1.3V0.7z"/>
		<polygon class="st1" points="9.9,6.4 11.8,1.9 13.6,6.4 14.3,6.4 12.1,0.9 11.8,0 11.4,0.9 9.2,6.4 		"/>
		<g>
			<polygon class="st1" points="41.1,0.3 41.1,0.1 42.1,0.1 42.1,0.3 41.7,0.3 41.7,1.4 41.5,1.4 41.5,0.3 			"/>
			<polygon class="st1" points="42.4,1.4 42.4,0.1 42.7,0.1 43.1,1.2 43.4,0.1 43.7,0.1 43.7,1.4 43.6,1.4 43.6,0.3 43.5,0.3
				43.1,1.4 43,1.4 42.6,0.3 42.6,0.3 42.6,1.4 			"/>
		</g>
	</g>
</g>
</svg>
